<?xml version="1.0" encoding="UTF-8" standalone="no"?>
<!-- Created with Inkscape (http://www.inkscape.org/) -->

<svg
   width="70mm"
   height="70mm"
   viewBox="0 0 70 70"
   version="1.1"
   id="svg5"
   inkscape:version="1.4.3 (fcd0343856, 2026-01-01)"
   sodipodi:docname="uT.svg"
   xmlns:inkscape="http://www.inkscape.org/namespaces/inkscape"
   xmlns:sodipodi="http://sodipodi.sourceforge.net/DTD/sodipodi-0.dtd"
   xmlns="http://www.w3.org/2000/svg"
   xmlns:svg="http://www.w3.org/2000/svg">
  <sodipodi:namedview
     id="namedview7"
     pagecolor="#ffffff"
     bordercolor="#666666"
     borderopacity="1.0"
     inkscape:pageshadow="2"
     inkscape:pageopacity="0.0"
     inkscape:pagecheckerboard="0"
     inkscape:document-units="mm"
     showgrid="false"
     inkscape:zoom="1.8116735"
     inkscape:cx="177.18424"
     inkscape:cy="83.62434"
     inkscape:window-width="1858"
     inkscape:window-height="1016"
     inkscape:window-x="0"
     inkscape:window-y="0"
     inkscape:window-maximized="1"
     inkscape:current-layer="text2498"
     inkscape:showpageshadow="2"
     inkscape:deskcolor="#d1d1d1" />
  <defs
     id="defs2" />
  <g
     inkscape:label="Ebene 1"
     inkscape:groupmode="layer"
     id="layer1">
    <g
       aria-label="unverbuggt Rüthlein Ing.-Büro"
       id="text2498"
       style="font-size:10.5833px;line-height:1.25;stroke-width:0.264583">
      <path
         id="rect18172"
         style="fill:#ef7210;fill-opacity:1;stroke-width:1.16402"
         d="m 0,19.883332 h 17.326605 l 13,-10.9999991 H 70 V 58.645835 H 0 Z"
         sodipodi:nodetypes="ccccccc" />
      <g
         id="g18455"
         transform="translate(-3.9976643,-0.53021798)">
        <g
           aria-label="uR"
           id="text12672"
           style="fill:#ffffff;stroke-width:0.0700042"
           transform="matrix(1.9474195,0,0,1.9474195,-114.52256,-100.51441)">
          <path
             id="text1"
             style="font-size:26.0858px;font-family:'Noto Serif';-inkscape-font-specification:'Noto Serif';letter-spacing:0.951045px;stroke-width:0.288074;stroke-linejoin:round"
             d="m 92.162529,60.513001 -14.868833,0.07828 -0.130557,4.564962 h -3.313001 v 1.095665 h 0.07828 c 0.591279,0 1.095702,0.113052 1.513074,0.339128 0.417373,0.208687 0.625981,0.721724 0.625981,1.53908 v 5.373509 c 0,1.269509 -0.260826,2.295585 -0.782542,3.078159 -0.521716,0.765183 -1.356413,1.147941 -2.504188,1.147941 -1.060823,0 -1.782469,-0.313045 -2.16506,-0.939104 -0.382592,-0.626059 -0.573971,-1.50436 -0.573971,-2.634745 v -8.999632 h -4.669247 v 1.095665 h 0.07828 c 0.573888,0 1.069431,0.104171 1.486803,0.312858 0.434764,0.208686 0.651986,0.695615 0.651986,1.460798 v 6.260604 c 0,1.791224 0.374143,3.095621 1.121936,3.912976 0.747793,0.799964 1.808592,1.199951 3.182444,1.199951 0.852136,0 1.634615,-0.147775 2.347627,-0.443414 0.713012,-0.31303 1.339101,-0.956614 1.878208,-1.930483 h 0.130291 l 0.339128,2.11305 h 4.147819 8.11254 v -1.095666 h -0.599976 c -0.591278,0 -1.095436,-0.104171 -1.512809,-0.312857 -0.417373,-0.226077 -0.626246,-0.747995 -0.626246,-1.56535 V 61.817238 h 2.530459 c 0.782574,0 1.321721,0.217488 1.61736,0.652251 0.295639,0.417373 0.47814,0.912917 0.5477,1.486804 l 0.130556,1.12167 h 1.356248 z m -8.686511,1.304237 v 14.477694 c 0,0.765183 -0.217488,1.252112 -0.652251,1.460799 -0.417373,0.191293 -0.912917,0.286852 -1.486804,0.286852 h -0.599975 -0.07828 c -0.573888,0 -1.078311,-0.09556 -1.513074,-0.286852 -0.417373,-0.208687 -0.625981,-0.695615 -0.625981,-1.460799 V 65.156244 l 0.130291,-1.121671 c 0.06956,-0.573887 0.252326,-1.06943 0.547965,-1.486803 0.295639,-0.434763 0.82623,-0.629971 1.59109,-0.652251 z" />
        </g>
      </g>
      <g
         aria-label="0001 0111 0101"
         id="text14389"
         style="stroke-width:0.0700042" />
      <path
         style="fill:none;stroke:#ffffff;stroke-width:2;stroke-linecap:butt;stroke-linejoin:miter;stroke-miterlimit:4;stroke-dasharray:none;stroke-opacity:1"
         d="m 0,19.883332 h 17.326605 l 13,-10.9999991 H 70"
         id="path1840"
         sodipodi:nodetypes="cccc" />
      <path
         style="fill:none;stroke:#ffffff;stroke-width:2;stroke-linecap:butt;stroke-linejoin:miter;stroke-miterlimit:4;stroke-dasharray:none;stroke-opacity:1"
         d="M 0,58.645835 H 70"
         id="path1842"
         sodipodi:nodetypes="cc" />
    </g>
  </g>
</svg>
